<?xml version="1.0" standalone="no"?>
<!DOCTYPE svg PUBLIC "-//W3C//DTD SVG 20010904//EN"
 "http://www.w3.org/TR/2001/REC-SVG-20010904/DTD/svg10.dtd">
<svg version="1.0" xmlns="http://www.w3.org/2000/svg"
 width="16.000000pt" height="16.000000pt" viewBox="0 0 16.000000 16.000000"
 preserveAspectRatio="xMidYMid meet">
<metadata>
Created by potrace 1.11, written by Peter Selinger 2001-2013
</metadata>
<g transform="translate(0.000000,16.000000) scale(0.005405,-0.005405)"
fill="#000000" stroke="none">
<path d="M391 2945 c-86 -21 -191 -79 -249 -136 -62 -62 -98 -118 -123 -197
-17 -53 -18 -122 -18 -1113 -1 -674 2 -1075 9 -1110 15 -80 62 -167 125 -230
64 -64 129 -103 229 -135 l71 -23 1020 0 c667 -1 1043 3 1085 10 142 22 299
129 363 247 59 108 57 70 57 1222 0 1150 2 1114 -56 1221 -36 65 -125 151
-195 189 -130 69 -42 64 -1209 66 -847 2 -1066 -1 -1109 -11z m1959 -329 c124
-29 236 -133 280 -260 19 -57 23 -157 23 -561 0 -215 -13 -301 -63 -402 -35
-71 -88 -121 -170 -161 l-55 -27 -830 -2 c-456 -2 -836 -5 -842 -8 -10 -3 -13
-96 -13 -415 l0 -410 -143 0 -143 0 0 1123 c0 617 3 1124 7 1127 13 9 1912 5
1949 -4z m-1043 -1704 c32 -4 42 -56 40 -221 -3 -213 10 -201 -212 -201 -221
0 -209 -11 -213 197 -2 169 5 209 42 223 17 6 296 7 343 2z m710 -15 c16 -16
18 -38 18 -193 0 -228 14 -214 -210 -214 -160 0 -163 0 -187 25 -25 25 -25 27
-23 183 2 191 1 177 25 200 19 17 37 19 190 18 148 -1 172 -3 187 -19z m694
-6 c17 -21 19 -41 19 -188 0 -161 0 -164 -25 -188 -23 -24 -28 -25 -179 -25
-167 0 -200 6 -212 42 -11 32 -12 308 -2 339 5 15 19 31 31 36 12 6 96 10 185
9 159 -1 164 -2 183 -25z"/>
<path d="M683 2333 c-13 -33 -8 -902 5 -915 16 -16 1638 -18 1660 -2 14 10 16
68 16 453 1 243 -2 451 -6 462 -7 19 -25 19 -838 19 -777 0 -831 -1 -837 -17z
m1604 -71 c7 -8 13 -22 11 -30 -3 -14 -45 -16 -378 -17 -206 0 -381 1 -387 3
-7 2 -13 17 -13 32 l0 28 376 -1 c314 0 378 -3 391 -15z m13 -147 l0 -33 -390
1 -390 0 0 33 0 33 390 -1 390 0 0 -33z m-2 -133 l3 -32 -390 0 -391 0 0 33 0
32 387 -1 388 0 3 -32z m4 -135 l-4 -34 -776 1 -777 1 -3 33 -3 32 783 0 784
0 -4 -33z m-5 -111 c4 -5 7 -20 8 -33 l1 -23 -781 2 c-743 3 -780 4 -783 21
-9 45 -36 44 778 44 520 0 773 -4 777 -11z m-11 -125 c19 -2 10 -45 -12 -56
-13 -6 -237 -9 -655 -8 -943 2 -856 0 -869 24 -7 11 -10 26 -7 32 3 9 192 12
768 11 420 -1 769 -2 775 -3z"/>
</g>
</svg>
