<?xml version="1.0" standalone="no"?>
<!DOCTYPE svg PUBLIC "-//W3C//DTD SVG 20010904//EN"
 "http://www.w3.org/TR/2001/REC-SVG-20010904/DTD/svg10.dtd">
<svg version="1.0" xmlns="http://www.w3.org/2000/svg"
 width="16.000000pt" height="16.000000pt" viewBox="0 0 16.000000 16.000000"
 preserveAspectRatio="xMidYMid meet">
<metadata>
Created by potrace 1.11, written by Peter Selinger 2001-2013
</metadata>
<g transform="translate(0.000000,16.000000) scale(0.002667,-0.002667)"
fill="#000000" stroke="none">
<path d="M910 5993 c-449 -46 -810 -347 -892 -743 -19 -96 -19 -4404 0 -4500
75 -361 374 -639 782 -727 81 -17 192 -18 2195 -18 2264 0 2162 -2 2329 51
338 108 592 375 658 694 19 96 19 4404 0 4500 -81 390 -429 686 -872 740 -78
9 -4109 13 -4200 3z m3924 -586 c164 -49 257 -102 373 -211 133 -125 199 -229
250 -393 l28 -88 0 -815 c0 -914 3 -867 -75 -1037 -107 -231 -294 -395 -535
-470 l-90 -28 -1685 -2 -1685 -3 -3 -855 -2 -855 -355 0 -355 0 0 2390 0 2390
2038 -2 c1920 -3 2040 -4 2096 -21z m-2048 -3739 c63 -34 65 -51 62 -414 l-3
-326 -37 -34 -38 -34 -329 0 -329 0 -30 25 c-52 43 -53 55 -50 402 l3 322 30
31 c16 17 43 35 60 40 16 5 165 8 330 7 262 -2 304 -4 331 -19z"/>
<path d="M4740 4737 c0 -2 15 -16 33 -33 l32 -29 -29 33 c-28 30 -36 37 -36
29z"/>
<path d="M4808 4655 c5 -11 12 -27 15 -35 5 -13 6 -13 6 1 1 8 -6 24 -15 35
-15 19 -15 19 -6 -1z"/>
<path d="M3090 4585 l0 -55 805 0 805 0 0 24 c0 14 -12 38 -26 55 l-26 31
-779 0 -779 0 0 -55z"/>
<path d="M4832 3895 c-2 -679 -3 -712 -22 -753 -11 -23 -15 -40 -10 -37 4 3
16 24 24 48 15 37 16 120 14 747 l-3 705 -3 -710z"/>
<path d="M3090 4315 l0 -65 805 0 805 0 0 65 0 65 -805 0 -805 0 0 -65z"/>
<path d="M3090 4040 l0 -60 805 0 805 0 0 60 0 60 -805 0 -805 0 0 -60z"/>
<path d="M2263 3823 l-783 -3 0 -60 0 -60 1610 0 1610 0 0 65 0 65 -827 -2
c-456 -2 -1180 -4 -1610 -5z"/>
<path d="M1480 3485 l0 -65 1610 0 1610 0 0 65 0 65 -1610 0 -1610 0 0 -65z"/>
<path d="M1480 3232 c0 -27 7 -45 21 -58 21 -19 61 -19 1586 -19 l1565 0 24
28 c14 16 24 41 24 58 l0 29 -1610 0 -1610 0 0 -38z"/>
<path d="M4764 3068 l-19 -23 23 19 c21 18 27 26 19 26 -2 0 -12 -10 -23 -22z"/>
</g>
</svg>
