<?xml version="1.0" standalone="no"?>
<!DOCTYPE svg PUBLIC "-//W3C//DTD SVG 20010904//EN"
 "http://www.w3.org/TR/2001/REC-SVG-20010904/DTD/svg10.dtd">
<svg version="1.0" xmlns="http://www.w3.org/2000/svg"
 width="16.000000pt" height="16.000000pt" viewBox="0 0 16.000000 16.000000"
 preserveAspectRatio="xMidYMid meet">
<metadata>
Created by potrace 1.11, written by Peter Selinger 2001-2013
</metadata>
<g transform="translate(0.000000,16.000000) scale(0.002500,-0.002500)"
fill="#000000" stroke="none">
<path d="M940 6393 c-272 -42 -482 -142 -659 -315 -118 -116 -195 -244 -249
-418 l-27 -85 0 -2375 0 -2375 28 -90 c115 -368 401 -618 817 -713 70 -16 237
-17 2345 -17 2155 0 2274 1 2355 18 397 85 698 341 809 688 13 42 18 63 31
139 6 34 10 943 9 2365 0 2397 0 2348 -39 2471 -67 208 -210 396 -395 519
-110 74 -259 139 -375 164 -25 5 -58 13 -75 18 -29 7 -4526 14 -4575 6z m2081
-1290 c0 -5 1 -218 2 -474 l2 -466 -1040 1 -1040 1 0 437 0 437 25 26 c14 15
34 31 45 35 25 11 2005 13 2006 3z m2388 -8 c32 -16 51 -59 51 -116 l0 -39
-1130 0 c-997 0 -1130 2 -1131 15 0 8 -1 44 -1 80 0 36 1 67 1 70 1 3 492 5
1091 5 940 0 1095 -2 1119 -15z m49 -445 l3 -96 -1131 0 c-912 0 -1130 3
-1131 13 0 7 -1 42 -1 78 0 36 1 73 1 83 1 17 53 18 1129 17 l1127 0 3 -95z
m2 -385 l0 -95 -1130 0 c-997 0 -1130 2 -1131 15 0 8 -1 44 -1 80 0 36 1 72 1
80 1 13 134 15 1131 15 l1130 0 0 -95z m-27 -294 l27 -1 0 -95 0 -95 -1507 0
c-830 0 -1842 -1 -2251 -1 -408 0 -746 2 -750 5 -4 3 -8 44 -7 93 l1 88 1714
5 c1407 4 2628 4 2773 1z m27 -482 l0 -96 -2255 0 c-1240 0 -2255 3 -2256 6
-1 3 -2 44 -3 90 -2 71 0 84 15 90 10 3 1026 6 2258 6 l2241 0 0 -96z m-2
-346 c3 -45 -1 -56 -25 -83 -16 -18 -43 -34 -63 -38 -60 -13 -4331 -7 -4362 6
-38 16 -59 53 -63 109 -1 26 -1 51 1 54 2 4 1017 6 2256 5 l2253 -1 3 -52z
m-3393 -861 c49 -28 84 -77 100 -140 8 -33 11 -178 10 -477 -2 -466 -1 -464
-58 -531 -56 -66 -49 -65 -561 -66 -443 0 -464 1 -502 20 -50 25 -68 46 -95
107 -22 49 -23 57 -22 485 0 475 2 495 56 557 62 70 52 69 569 68 l463 0 40
-23z m1638 4 c44 -22 83 -69 103 -123 17 -49 20 -876 3 -938 -16 -58 -67 -121
-114 -141 -35 -14 -96 -16 -496 -16 -494 0 -496 1 -551 56 -64 65 -63 54 -63
566 l0 465 28 48 c27 46 82 90 123 99 10 2 224 4 474 3 424 0 458 -2 493 -19z
m1642 2 c48 -26 86 -73 104 -127 14 -43 16 -108 15 -488 -1 -436 -1 -438 -23
-483 -30 -59 -48 -78 -95 -102 -36 -19 -60 -20 -501 -20 -512 0 -505 -1 -562
66 -57 67 -56 64 -58 536 -2 462 1 488 47 556 13 19 43 45 68 57 46 23 46 23
510 22 411 0 468 -2 495 -17z"/>
</g>
</svg>
