<?xml version="1.0" encoding="UTF-8" standalone="no"?>
<svg
   xmlns:dc="http://purl.org/dc/elements/1.1/"
   xmlns:cc="http://creativecommons.org/ns#"
   xmlns:rdf="http://www.w3.org/1999/02/22-rdf-syntax-ns#"
   xmlns:svg="http://www.w3.org/2000/svg"
   xmlns="http://www.w3.org/2000/svg"
   xmlns:sodipodi="http://sodipodi.sourceforge.net/DTD/sodipodi-0.dtd"
   xmlns:inkscape="http://www.inkscape.org/namespaces/inkscape"
   width="190.99988mm"
   height="190.99954mm"
   viewBox="0 0 541.417 541.416"
   xml:space="preserve"
   id="svg2242"
   version="1.1"
   style="display:inline"
   inkscape:version="0.91 r13725"
   sodipodi:docname="Ponoko0.svg"><sodipodi:namedview
     pagecolor="#ffffff"
     bordercolor="#666666"
     borderopacity="1"
     objecttolerance="10"
     gridtolerance="10"
     guidetolerance="10"
     inkscape:pageopacity="0"
     inkscape:pageshadow="2"
     inkscape:window-width="1288"
     inkscape:window-height="646"
     id="namedview25"
     showgrid="false"
     units="mm"
     inkscape:zoom="0.69743044"
     inkscape:cx="123.35075"
     inkscape:cy="520.28547"
     inkscape:window-x="0"
     inkscape:window-y="0"
     inkscape:window-maximized="0"
     inkscape:current-layer="svg2242" /><metadata
     id="metadata2286"><rdf:RDF><cc:Work
         rdf:about=""><dc:format>image/svg+xml</dc:format><dc:type
           rdf:resource="http://purl.org/dc/dcmitype/StillImage" /><dc:title /></cc:Work></rdf:RDF></metadata><defs
     id="defs2284" /><path
     style="color:#000000;clip-rule:nonzero;display:inline;overflow:visible;visibility:visible;opacity:1;isolation:auto;mix-blend-mode:normal;color-interpolation:sRGB;color-interpolation-filters:linearRGB;solid-color:#000000;solid-opacity:1;fill:none;fill-opacity:1;fill-rule:nonzero;stroke:#0000ff;stroke-width:0.02857657;stroke-linecap:butt;stroke-linejoin:miter;stroke-miterlimit:4;stroke-dasharray:none;stroke-dashoffset:0;stroke-opacity:1;color-rendering:auto;image-rendering:auto;shape-rendering:auto;text-rendering:auto;enable-background:accumulate"
     d="m 100.30601,15.682912 c -48.494151,0 -87.535816,34.838813 -87.535816,78.119996 l 0,356.722962 c 0,43.28111 39.041665,78.11996 87.535816,78.11996 l 340.72595,0 c 48.49413,0 87.5358,-34.83885 87.5358,-78.11996 l 0,-356.722962 c 0,-43.281183 -39.04167,-78.119996 -87.5358,-78.119996 z m -1.914153,103.367998 158.025503,0 0,13.57578 0,15.64623 0,15.32667 0,15.64616 0,15.34054 0,0.40267 -167.498777,0 0,-67.351 c 0,-2.52933 0.454339,-3.66123 2.151922,-5.34977 2.383785,-2.37089 4.44941,-3.23758 7.321352,-3.23758 z m 172.081503,0 172.91991,0 c 2.86288,0.007 4.48877,0.24615 6.21764,1.58402 2.01771,1.56199 3.17683,4.59166 3.25545,7.00333 l 0,4.98843 -182.393,0 z m 0,29.22201 182.393,0 0,15.32667 -182.393,0 z m 0,30.97283 182.393,0 0,15.34054 -182.393,0 z m 182.393,30.98677 0,15.53512 -363.947777,0 0,-15.13214 c 0,0 231.506937,-0.40269 363.947777,-0.40269 z m -363.947777,31.19524 363.947777,0 0,15.25716 -363.947777,0 z m 0,30.90337 363.947777,0 0,5.97502 c 7e-5,2.20489 -0.52221,3.72917 -2.90615,6.10007 -1.69795,1.68846 -3.46235,2.48726 -6.56694,2.48726 l -345.001413,0 c -2.873309,0 -5.001782,-0.95858 -7.167776,-2.65395 -1.566085,-1.98901 -2.305498,-3.62972 -2.305498,-5.93338 z m 15.146037,71.49189 68.18422,0 c 9.60113,0 15.81653,8.87899 15.81653,17.92508 l 0,63.41863 c 0,9.0461 -6.2154,17.92507 -15.81653,17.92507 l -68.18422,0 c -9.601132,0 -15.816627,-8.87897 -15.816627,-17.92507 l 0,-63.41863 c 0,-9.04609 6.215495,-17.92508 15.816627,-17.92508 z m 132.5122,0 68.18432,0 c 9.60106,0 15.81654,8.87899 15.81654,17.92508 l 0,63.41863 c 0,9.0461 -6.21548,17.92507 -15.81654,17.92507 l -68.18432,0 c -9.60107,0 -15.81653,-8.87897 -15.81653,-17.92507 l 0,-63.41863 c 0,-9.04609 6.21546,-17.92508 15.81653,-17.92508 z m 132.51232,0 68.18431,0 c 9.60106,0 15.81653,8.87899 15.81653,17.92508 l 0,63.41863 c 0,9.0461 -6.21547,17.92507 -15.81653,17.92507 l -68.18431,0 c -9.60114,0 -15.81655,-8.87897 -15.81655,-17.92507 l 0,-63.41863 c 0,-9.04609 6.21541,-17.92508 15.81655,-17.92508 z"
     id="path4298"
     inkscape:connector-curvature="0" /></svg>